<mxfile host="Electron" modified="2023-08-11T01:25:11.898Z" agent="Mozilla/5.0 (Windows NT 10.0; Win64; x64) AppleWebKit/537.36 (KHTML, like Gecko) draw.io/21.6.5 Chrome/114.0.5735.243 Electron/25.3.1 Safari/537.36" etag="wVNWSBHGe5U0HYNEXBEZ" version="21.6.5" type="device">
  <diagram id="R2lEEEUBdFMjLlhIrx00" name="Page-1">
    <mxGraphModel dx="1035" dy="616" grid="1" gridSize="10" guides="1" tooltips="1" connect="1" arrows="1" fold="1" page="1" pageScale="1" pageWidth="850" pageHeight="1100" math="0" shadow="0" extFonts="Permanent Marker^https://fonts.googleapis.com/css?family=Permanent+Marker">
      <root>
        <mxCell id="0" />
        <mxCell id="1" parent="0" />
        <mxCell id="ps7UMagSVTidVoUcBpAy-1" value="Productos" style="whiteSpace=wrap;html=1;align=center;" vertex="1" parent="1">
          <mxGeometry x="680" y="180" width="100" height="40" as="geometry" />
        </mxCell>
        <mxCell id="ps7UMagSVTidVoUcBpAy-14" style="edgeStyle=orthogonalEdgeStyle;rounded=0;orthogonalLoop=1;jettySize=auto;html=1;exitX=1;exitY=0.5;exitDx=0;exitDy=0;entryX=1;entryY=0.5;entryDx=0;entryDy=0;endArrow=none;endFill=0;" edge="1" parent="1" source="ps7UMagSVTidVoUcBpAy-2" target="ps7UMagSVTidVoUcBpAy-1">
          <mxGeometry relative="1" as="geometry" />
        </mxCell>
        <mxCell id="ps7UMagSVTidVoUcBpAy-2" value="ID" style="ellipse;whiteSpace=wrap;html=1;align=center;fontStyle=4;" vertex="1" parent="1">
          <mxGeometry x="680" y="250" width="100" height="40" as="geometry" />
        </mxCell>
        <mxCell id="ps7UMagSVTidVoUcBpAy-15" style="edgeStyle=orthogonalEdgeStyle;rounded=0;orthogonalLoop=1;jettySize=auto;html=1;exitX=1;exitY=0.5;exitDx=0;exitDy=0;entryX=1;entryY=0.5;entryDx=0;entryDy=0;endArrow=none;endFill=0;" edge="1" parent="1" source="ps7UMagSVTidVoUcBpAy-3" target="ps7UMagSVTidVoUcBpAy-1">
          <mxGeometry relative="1" as="geometry">
            <mxPoint x="820" y="240" as="targetPoint" />
          </mxGeometry>
        </mxCell>
        <mxCell id="ps7UMagSVTidVoUcBpAy-3" value="Nombre" style="ellipse;whiteSpace=wrap;html=1;align=center;" vertex="1" parent="1">
          <mxGeometry x="680" y="320" width="100" height="40" as="geometry" />
        </mxCell>
        <mxCell id="ps7UMagSVTidVoUcBpAy-16" style="edgeStyle=orthogonalEdgeStyle;rounded=0;orthogonalLoop=1;jettySize=auto;html=1;exitX=1;exitY=0.5;exitDx=0;exitDy=0;entryX=1;entryY=0.5;entryDx=0;entryDy=0;endArrow=none;endFill=0;" edge="1" parent="1" source="ps7UMagSVTidVoUcBpAy-4" target="ps7UMagSVTidVoUcBpAy-1">
          <mxGeometry relative="1" as="geometry" />
        </mxCell>
        <mxCell id="ps7UMagSVTidVoUcBpAy-4" value="Cantidad" style="ellipse;whiteSpace=wrap;html=1;align=center;" vertex="1" parent="1">
          <mxGeometry x="680" y="390" width="100" height="40" as="geometry" />
        </mxCell>
        <mxCell id="ps7UMagSVTidVoUcBpAy-27" style="edgeStyle=orthogonalEdgeStyle;rounded=0;orthogonalLoop=1;jettySize=auto;html=1;exitX=0.75;exitY=0;exitDx=0;exitDy=0;entryX=0.5;entryY=0;entryDx=0;entryDy=0;endArrow=none;endFill=0;" edge="1" parent="1" source="ps7UMagSVTidVoUcBpAy-5" target="ps7UMagSVTidVoUcBpAy-11">
          <mxGeometry relative="1" as="geometry" />
        </mxCell>
        <mxCell id="ps7UMagSVTidVoUcBpAy-5" value="Componentes" style="whiteSpace=wrap;html=1;align=center;" vertex="1" parent="1">
          <mxGeometry x="390" y="90" width="100" height="40" as="geometry" />
        </mxCell>
        <mxCell id="ps7UMagSVTidVoUcBpAy-20" style="edgeStyle=orthogonalEdgeStyle;rounded=0;orthogonalLoop=1;jettySize=auto;html=1;exitX=1;exitY=0.5;exitDx=0;exitDy=0;entryX=1;entryY=0.5;entryDx=0;entryDy=0;endArrow=none;endFill=0;" edge="1" parent="1" source="ps7UMagSVTidVoUcBpAy-6" target="ps7UMagSVTidVoUcBpAy-5">
          <mxGeometry relative="1" as="geometry" />
        </mxCell>
        <mxCell id="ps7UMagSVTidVoUcBpAy-6" value="ID" style="ellipse;whiteSpace=wrap;html=1;align=center;fontStyle=4;" vertex="1" parent="1">
          <mxGeometry x="390" y="170" width="100" height="40" as="geometry" />
        </mxCell>
        <mxCell id="ps7UMagSVTidVoUcBpAy-22" style="edgeStyle=orthogonalEdgeStyle;rounded=0;orthogonalLoop=1;jettySize=auto;html=1;exitX=1;exitY=0.5;exitDx=0;exitDy=0;entryX=1;entryY=0.5;entryDx=0;entryDy=0;endArrow=none;endFill=0;" edge="1" parent="1" source="ps7UMagSVTidVoUcBpAy-7" target="ps7UMagSVTidVoUcBpAy-5">
          <mxGeometry relative="1" as="geometry" />
        </mxCell>
        <mxCell id="ps7UMagSVTidVoUcBpAy-7" value="Nombre" style="ellipse;whiteSpace=wrap;html=1;align=center;" vertex="1" parent="1">
          <mxGeometry x="390" y="240" width="100" height="40" as="geometry" />
        </mxCell>
        <mxCell id="ps7UMagSVTidVoUcBpAy-23" style="edgeStyle=orthogonalEdgeStyle;rounded=0;orthogonalLoop=1;jettySize=auto;html=1;exitX=1;exitY=0.5;exitDx=0;exitDy=0;entryX=1;entryY=0.5;entryDx=0;entryDy=0;endArrow=none;endFill=0;" edge="1" parent="1" source="ps7UMagSVTidVoUcBpAy-8" target="ps7UMagSVTidVoUcBpAy-5">
          <mxGeometry relative="1" as="geometry" />
        </mxCell>
        <mxCell id="ps7UMagSVTidVoUcBpAy-8" value="DescripciÃ³n" style="ellipse;whiteSpace=wrap;html=1;align=center;" vertex="1" parent="1">
          <mxGeometry x="390" y="310" width="100" height="40" as="geometry" />
        </mxCell>
        <mxCell id="ps7UMagSVTidVoUcBpAy-28" style="edgeStyle=orthogonalEdgeStyle;rounded=0;orthogonalLoop=1;jettySize=auto;html=1;exitX=0.5;exitY=1;exitDx=0;exitDy=0;entryX=0.5;entryY=0;entryDx=0;entryDy=0;endArrow=none;endFill=0;" edge="1" parent="1" source="ps7UMagSVTidVoUcBpAy-11" target="ps7UMagSVTidVoUcBpAy-1">
          <mxGeometry relative="1" as="geometry" />
        </mxCell>
        <mxCell id="ps7UMagSVTidVoUcBpAy-11" value="Producir" style="shape=rhombus;perimeter=rhombusPerimeter;whiteSpace=wrap;html=1;align=center;" vertex="1" parent="1">
          <mxGeometry x="550" y="70" width="120" height="60" as="geometry" />
        </mxCell>
        <mxCell id="ps7UMagSVTidVoUcBpAy-32" style="edgeStyle=orthogonalEdgeStyle;rounded=0;orthogonalLoop=1;jettySize=auto;html=1;exitX=0.5;exitY=0;exitDx=0;exitDy=0;entryX=0.5;entryY=0;entryDx=0;entryDy=0;endArrow=none;endFill=0;" edge="1" parent="1" source="ps7UMagSVTidVoUcBpAy-13" target="ps7UMagSVTidVoUcBpAy-31">
          <mxGeometry relative="1" as="geometry" />
        </mxCell>
        <mxCell id="ps7UMagSVTidVoUcBpAy-13" value="Proveedores" style="whiteSpace=wrap;html=1;align=center;" vertex="1" parent="1">
          <mxGeometry x="30" y="90" width="100" height="40" as="geometry" />
        </mxCell>
        <mxCell id="ps7UMagSVTidVoUcBpAy-24" style="edgeStyle=orthogonalEdgeStyle;rounded=0;orthogonalLoop=1;jettySize=auto;html=1;exitX=1;exitY=0.5;exitDx=0;exitDy=0;entryX=1;entryY=0.5;entryDx=0;entryDy=0;endArrow=none;endFill=0;" edge="1" parent="1" source="ps7UMagSVTidVoUcBpAy-17" target="ps7UMagSVTidVoUcBpAy-5">
          <mxGeometry relative="1" as="geometry" />
        </mxCell>
        <mxCell id="ps7UMagSVTidVoUcBpAy-17" value="Proveedores" style="ellipse;shape=doubleEllipse;margin=3;whiteSpace=wrap;html=1;align=center;" vertex="1" parent="1">
          <mxGeometry x="390" y="380" width="100" height="40" as="geometry" />
        </mxCell>
        <mxCell id="ps7UMagSVTidVoUcBpAy-25" style="edgeStyle=orthogonalEdgeStyle;rounded=0;orthogonalLoop=1;jettySize=auto;html=1;exitX=1;exitY=0.5;exitDx=0;exitDy=0;entryX=1;entryY=0.5;entryDx=0;entryDy=0;endArrow=none;endFill=0;" edge="1" parent="1" source="ps7UMagSVTidVoUcBpAy-18" target="ps7UMagSVTidVoUcBpAy-5">
          <mxGeometry relative="1" as="geometry" />
        </mxCell>
        <mxCell id="ps7UMagSVTidVoUcBpAy-18" value="Productos" style="ellipse;shape=doubleEllipse;margin=3;whiteSpace=wrap;html=1;align=center;" vertex="1" parent="1">
          <mxGeometry x="390" y="450" width="100" height="40" as="geometry" />
        </mxCell>
        <mxCell id="ps7UMagSVTidVoUcBpAy-29" value="Muchos" style="text;html=1;align=center;verticalAlign=middle;resizable=0;points=[];autosize=1;strokeColor=none;fillColor=none;" vertex="1" parent="1">
          <mxGeometry x="500" y="20" width="70" height="30" as="geometry" />
        </mxCell>
        <mxCell id="ps7UMagSVTidVoUcBpAy-30" value="A muchos" style="text;html=1;align=center;verticalAlign=middle;resizable=0;points=[];autosize=1;strokeColor=none;fillColor=none;" vertex="1" parent="1">
          <mxGeometry x="630" y="120" width="80" height="30" as="geometry" />
        </mxCell>
        <mxCell id="ps7UMagSVTidVoUcBpAy-33" style="edgeStyle=orthogonalEdgeStyle;rounded=0;orthogonalLoop=1;jettySize=auto;html=1;exitX=1;exitY=0.5;exitDx=0;exitDy=0;entryX=0;entryY=0.5;entryDx=0;entryDy=0;" edge="1" parent="1" source="ps7UMagSVTidVoUcBpAy-31" target="ps7UMagSVTidVoUcBpAy-5">
          <mxGeometry relative="1" as="geometry" />
        </mxCell>
        <mxCell id="ps7UMagSVTidVoUcBpAy-31" value="Suministrar" style="shape=rhombus;perimeter=rhombusPerimeter;whiteSpace=wrap;html=1;align=center;" vertex="1" parent="1">
          <mxGeometry x="160" y="240" width="120" height="60" as="geometry" />
        </mxCell>
        <mxCell id="ps7UMagSVTidVoUcBpAy-34" value="Uno o muchos" style="text;html=1;align=center;verticalAlign=middle;resizable=0;points=[];autosize=1;strokeColor=none;fillColor=none;" vertex="1" parent="1">
          <mxGeometry x="110" y="30" width="100" height="30" as="geometry" />
        </mxCell>
        <mxCell id="ps7UMagSVTidVoUcBpAy-35" value="A uno" style="text;html=1;align=center;verticalAlign=middle;resizable=0;points=[];autosize=1;strokeColor=none;fillColor=none;" vertex="1" parent="1">
          <mxGeometry x="330" y="80" width="50" height="30" as="geometry" />
        </mxCell>
        <mxCell id="ps7UMagSVTidVoUcBpAy-43" style="edgeStyle=orthogonalEdgeStyle;rounded=0;orthogonalLoop=1;jettySize=auto;html=1;exitX=0;exitY=0.5;exitDx=0;exitDy=0;entryX=0;entryY=0.5;entryDx=0;entryDy=0;endArrow=none;endFill=0;" edge="1" parent="1" source="ps7UMagSVTidVoUcBpAy-37" target="ps7UMagSVTidVoUcBpAy-13">
          <mxGeometry relative="1" as="geometry" />
        </mxCell>
        <mxCell id="ps7UMagSVTidVoUcBpAy-37" value="RUT" style="ellipse;whiteSpace=wrap;html=1;align=center;fontStyle=4;" vertex="1" parent="1">
          <mxGeometry x="30" y="170" width="100" height="40" as="geometry" />
        </mxCell>
        <mxCell id="ps7UMagSVTidVoUcBpAy-44" style="edgeStyle=orthogonalEdgeStyle;rounded=0;orthogonalLoop=1;jettySize=auto;html=1;exitX=0;exitY=0.5;exitDx=0;exitDy=0;entryX=0;entryY=0.5;entryDx=0;entryDy=0;endArrow=none;endFill=0;" edge="1" parent="1" source="ps7UMagSVTidVoUcBpAy-38" target="ps7UMagSVTidVoUcBpAy-13">
          <mxGeometry relative="1" as="geometry" />
        </mxCell>
        <mxCell id="ps7UMagSVTidVoUcBpAy-38" value="Nombre" style="ellipse;whiteSpace=wrap;html=1;align=center;" vertex="1" parent="1">
          <mxGeometry x="30" y="240" width="100" height="40" as="geometry" />
        </mxCell>
        <mxCell id="ps7UMagSVTidVoUcBpAy-46" style="edgeStyle=orthogonalEdgeStyle;rounded=0;orthogonalLoop=1;jettySize=auto;html=1;exitX=0;exitY=0.5;exitDx=0;exitDy=0;entryX=0;entryY=0.5;entryDx=0;entryDy=0;endArrow=none;endFill=0;" edge="1" parent="1" source="ps7UMagSVTidVoUcBpAy-39" target="ps7UMagSVTidVoUcBpAy-13">
          <mxGeometry relative="1" as="geometry" />
        </mxCell>
        <mxCell id="ps7UMagSVTidVoUcBpAy-39" value="TelÃ©fonos" style="ellipse;shape=doubleEllipse;margin=3;whiteSpace=wrap;html=1;align=center;" vertex="1" parent="1">
          <mxGeometry x="30" y="380" width="100" height="40" as="geometry" />
        </mxCell>
        <mxCell id="ps7UMagSVTidVoUcBpAy-45" style="edgeStyle=orthogonalEdgeStyle;rounded=0;orthogonalLoop=1;jettySize=auto;html=1;exitX=0;exitY=0.5;exitDx=0;exitDy=0;entryX=0;entryY=0.5;entryDx=0;entryDy=0;endArrow=none;endFill=0;" edge="1" parent="1" source="ps7UMagSVTidVoUcBpAy-42" target="ps7UMagSVTidVoUcBpAy-13">
          <mxGeometry relative="1" as="geometry" />
        </mxCell>
        <mxCell id="ps7UMagSVTidVoUcBpAy-42" value="DirecciÃ³n" style="ellipse;shape=doubleEllipse;margin=3;whiteSpace=wrap;html=1;align=center;" vertex="1" parent="1">
          <mxGeometry x="30" y="310" width="100" height="40" as="geometry" />
        </mxCell>
        <mxCell id="ps7UMagSVTidVoUcBpAy-47" value="&lt;b&gt;JESÃS ALBERTO DOMÃNGUEZ CHARRIS&lt;/b&gt;" style="text;html=1;align=center;verticalAlign=middle;resizable=0;points=[];autosize=1;strokeColor=none;fillColor=none;" vertex="1" parent="1">
          <mxGeometry x="575" y="10" width="260" height="30" as="geometry" />
        </mxCell>
      </root>
    </mxGraphModel>
  </diagram>
</mxfile>
